<svg height="486pt" viewBox="0 -26 486.50023 486" width="486pt" xmlns="http://www.w3.org/2000/svg"><path d="m91.78125 170.964844 83.886719 84.070312c19.136719 19.175782 44.253906 28.699219 69.335937 28.59375 25.082032.109375 50.195313-9.417968 69.332032-28.59375l83.886718-84.070312c38.058594-38.136719 38.058594-99.972656 0-138.109375-38.054687-38.140625-99.757812-38.140625-137.816406 0l-6.800781 6.816406c-4.75 4.761719-12.457031 4.761719-17.207031 0l-6.800782-6.816406c-38.058594-38.140625-99.757812-38.140625-137.816406 0-38.058594 38.136719-38.058594 99.972656 0 138.109375zm0 0" fill="#f9a7a7"/><path d="m349.277344 411.296875c5.214844-.53125 10.261718-2.15625 14.8125-4.757813l112.820312-64.605468c5.34375-3.058594 7.175782-9.832032 4.089844-15.132813-9.8125-16.855469-31.546875-22.632812-48.542969-12.898437l-80.878906 46.3125c-5.699219 3.261718-12.367187 4.417968-18.835937 3.265625l-105.515626-18.839844-14.667968-1.679687h86.59375c19.46875 0 35.246094-15.777344 35.246094-35.246094 0-6.117188-4.957032-11.078125-11.078126-11.078125h-100.109374c-7.015626 0-13.949219 1.523437-20.324219 4.464843l-65.675781 30.304688c-10.261719 4.734375-21.433594 7.191406-32.738282 7.191406h-64.96875v.34375h-35.503906v92h35.503906v.300782h82.128906l220.796876-19.386719c.160156-.011719.316406-.023438.476562-.039063zm0 0" fill="#f9cfcf"/><path d="m244.53125 287.628906c-27.070312 0-52.527344-10.5625-71.695312-29.769531l-83.886719-84.070313c-39.550781-39.632812-39.550781-104.125 0-143.761718 19.160156-19.203125 44.640625-29.777344 71.738281-29.777344 27.101562 0 52.578125 10.574219 71.742188 29.777344l6.796874 6.816406c1.542969 1.542969 3.59375 2.394531 5.777344 2.394531 2.179688 0 4.226563-.847656 5.769532-2.394531l6.800781-6.816406c19.160156-19.203125 44.640625-29.777344 71.738281-29.777344 27.101562 0 52.578125 10.574219 71.742188 29.777344 39.546874 39.636718 39.546874 104.125 0 143.761718l-83.890626 84.070313c-19.164062 19.207031-44.625 29.765625-71.730468 29.769531-.296875 0-.597656 0-.902344 0zm.449219-8h.417969c25 0 48.449218-9.730468 66.105468-27.421875l83.886719-84.066406c36.441406-36.519531 36.441406-95.941406 0-132.460937-17.652344-17.6875-41.117187-27.425782-66.078125-27.425782-24.957031 0-48.425781 9.738282-66.074219 27.425782l-6.800781 6.816406c-3.054688 3.058594-7.117188 4.746094-11.433594 4.746094-4.320312 0-8.382812-1.683594-11.4375-4.742188l-6.800781-6.820312c-17.652344-17.6875-41.117187-27.425782-66.078125-27.425782s-48.425781 9.738282-66.074219 27.425782c-36.441406 36.519531-36.441406 95.941406 0 132.460937l83.886719 84.066406c17.652344 17.691407 41.105469 27.421875 66.066406 27.421875zm0 0" fill="#3762cc"/><path d="m121.628906 435.242188h-82.125c-.542968 0-1.058594-.109376-1.53125-.300782h-33.972656c-2.207031 0-4-1.792968-4-4v-92c0-2.210937 1.792969-4 4-4h33.878906c.496094-.222656 1.042969-.34375 1.625-.34375h64.96875c10.648438 0 21.390625-2.359375 31.0625-6.820312l65.675782-30.308594c6.847656-3.160156 14.457031-4.832031 22-4.832031h100.113281c8.3125 0 15.074219 6.765625 15.074219 15.078125 0 21.640625-17.605469 39.246094-39.246094 39.246094h-36.167969l70.460937 12.582031c5.539063.992187 11.265626-.007813 16.144532-2.800781l80.875-46.308594c18.875-10.804688 43.089844-4.367188 53.988281 14.359375 2.027344 3.480469 2.570313 7.539062 1.53125 11.425781-1.042969 3.90625-3.5625 7.167969-7.085937 9.1875l-112.824219 64.609375c-5.066407 2.898437-10.582031 4.671875-16.386719 5.265625-.03125.003906-.058594.003906-.085938.007812l-6.828124.554688-220.792969 19.382812c-.113281.011719-.234375.015626-.351563.015626zm-80.597656-8h80.425781l221.160157-19.414063 6.292968-.515625c4.675782-.480469 9.113282-1.914062 13.191406-4.25l112.824219-64.601562c1.660157-.953126 2.84375-2.484376 3.335938-4.316407.484375-1.8125.230469-3.707031-.714844-5.335937-8.699219-14.9375-28.03125-20.070313-43.101563-11.441406l-80.878906 46.316406c-6.503906 3.71875-14.148437 5.046875-21.523437 3.730468l-105.394531-18.816406-14.542969-1.667968c-2.109375-.238282-3.660157-2.082032-3.539063-4.203126.121094-2.117187 1.875-3.769531 3.992188-3.769531h86.59375c17.230468 0 31.246094-14.015625 31.246094-31.246093 0-3.902344-3.171876-7.078126-7.074219-7.078126h-100.113281c-6.394532 0-12.84375 1.414063-18.648438 4.09375l-65.675781 30.304688c-10.710938 4.945312-22.613281 7.558594-34.414063 7.558594h-63.347656c-.496094.21875-1.046875.34375-1.625.34375h-31.5v84h31.503906c.539063.007812 1.054688.113281 1.527344.308594zm308.25-15.945313h.019531zm0 0" fill="#3762cc"/><g fill="#4671c6"><path d="m179.714844 158.148438h-.503906c-11.246094 0-20.363282-9.113282-20.363282-20.359376v-10.992187c0-11.246094 9.117188-20.363281 20.363282-20.363281h.503906c11.246094 0 20.363281 9.117187 20.363281 20.363281v10.992187c0 11.246094-9.117187 20.359376-20.363281 20.359376zm0 0"/><path d="m310.785156 158.148438h.503906c11.246094 0 20.363282-9.113282 20.363282-20.359376v-10.992187c0-11.246094-9.117188-20.363281-20.363282-20.363281h-.503906c-11.246094 0-20.363281 9.117187-20.363281 20.363281v10.992187c0 11.246094 9.117187 20.359376 20.363281 20.359376zm0 0"/><path d="m219.171875 121.128906h-.507813c-11.246093 0-20.363281-9.117187-20.363281-20.363281v-10.992187c0-11.246094 9.117188-20.359376 20.363281-20.359376h.507813c11.242187 0 20.359375 9.113282 20.359375 20.359376v10.992187c0 11.246094-9.117188 20.363281-20.359375 20.363281zm0 0"/><path d="m270.21875 121.128906h.503906c11.246094 0 20.363282-9.117187 20.363282-20.363281v-10.992187c0-11.246094-9.117188-20.359376-20.363282-20.359376h-.503906c-11.246094 0-20.363281 9.113282-20.363281 20.359376v10.992187c0 11.246094 9.117187 20.363281 20.363281 20.363281zm0 0"/><path d="m285.75 160.738281c-1.824219-.445312-3.09375-1.953125-3.09375-3.679687 0-18.839844-16.75-34.113282-37.40625-34.113282-20.660156 0-37.40625 15.273438-37.40625 34.113282 0 1.726562-1.269531 3.234375-3.09375 3.679687-15.769531 3.84375-27.386719 16.953125-27.386719 32.546875v.832032c0 18.609374 16.542969 33.695312 36.949219 33.695312h61.875c20.40625 0 36.949219-15.085938 36.949219-33.695312v-.832032c0-15.59375-11.617188-28.703125-27.386719-32.546875zm0 0"/></g></svg>