<svg height="488pt" viewBox="0 -16 488 488" width="488pt" xmlns="http://www.w3.org/2000/svg"><path d="m312 380c0 39.765625-32.234375 72-72 72s-72-32.234375-72-72 32.234375-72 72-72 72 32.234375 72 72zm0 0" fill="#f9cfcf"/><path d="m240 456c-41.90625 0-76-34.09375-76-76s34.09375-76 76-76 76 34.09375 76 76-34.09375 76-76 76zm0-144c-37.496094 0-68 30.503906-68 68s30.503906 68 68 68 68-30.503906 68-68-30.503906-68-68-68zm0 0" fill="#3762cc"/><g fill="#4671c6"><path d="m201.695312 386.503906h-.140624c-6.601563 0-11.953126-5.355468-11.953126-11.957031v-6.648437c0-6.601563 5.351563-11.953126 11.953126-11.953126h.140624c6.601563 0 11.953126 5.351563 11.953126 11.953126v6.648437c0 6.601563-5.351563 11.957031-11.953126 11.957031zm0 0"/><path d="m278.304688 386.503906h.140624c6.601563 0 11.953126-5.355468 11.953126-11.957031v-6.648437c0-6.601563-5.351563-11.953126-11.953126-11.953126h-.140624c-6.601563 0-11.953126 5.351563-11.953126 11.953126v6.648437c0 6.601563 5.351563 11.957031 11.953126 11.957031zm0 0"/><path d="m224.710938 364.625h-.144532c-6.601562 0-11.953125-5.351562-11.953125-11.953125v-6.648437c0-6.601563 5.351563-11.957032 11.953125-11.957032h.144532c6.601562 0 11.953124 5.355469 11.953124 11.957032v6.648437c0 6.601563-5.351562 11.953125-11.953124 11.953125zm0 0"/><path d="m254.640625 364.625h.144531c6.601563 0 11.953125-5.351562 11.953125-11.953125v-6.648437c0-6.601563-5.351562-11.957032-11.953125-11.957032h-.144531c-6.601563 0-11.953125 5.355469-11.953125 11.957032v6.648437c0 6.601563 5.351562 11.953125 11.953125 11.953125zm0 0"/><path d="m263.625 388.03125c-1.0625-.261719-1.804688-1.152344-1.804688-2.171875 0-11.132813-9.769531-20.15625-21.816406-20.15625-12.054687 0-21.820312 9.023437-21.820312 20.15625 0 1.019531-.742188 1.910156-1.804688 2.171875-9.199218 2.269531-15.976562 10.019531-15.976562 19.234375v.492187c0 10.996094 9.648437 19.910157 21.554687 19.910157h36.089844c11.902344 0 21.554687-8.914063 21.554687-19.910157v-.492187c0-9.214844-6.777343-16.964844-15.976562-19.234375zm0 0"/><path d="m21.964844 134.671875c35.257812-33.820313 118.695312-57.8125 216.597656-58.671875h10.871094c97.90625.859375 181.339844 24.851562 216.601562 58.671875 11.570313-11.097656 17.964844-23.25 17.964844-35.996094 0-51.585937-104.527344-93.535156-234.5625-94.675781h-10.871094c-130.039062 1.140625-234.566406 43.089844-234.566406 94.675781 0 12.746094 6.394531 24.898438 17.964844 35.996094zm0 0"/></g><path d="m244 194.027344c-128.574219 0-233.53125-39.898438-239.707031-90.027344h-.292969v72h.292969c6.179687 50.128906 111.132812 90.027344 239.707031 90.027344s233.53125-39.898438 239.707031-90.027344h.292969v-72h-.292969c-6.175781 50.128906-111.132812 90.027344-239.707031 90.027344zm0 0" fill="#a4c9ff"/><path d="m244 266.027344c53.488281 0 102.878906-6.910156 142.78125-18.582032 14.90625-4.363281 25.21875-17.925781 25.21875-33.460937 0-22.5-21.03125-39.113281-42.902344-33.832031-36.425781 8.800781-79.257812 13.875-125.097656 13.875-123.398438 0-225.023438-36.75-238.46875-84.027344h-1.53125v66h.292969c6.175781 50.128906 111.132812 90.027344 239.707031 90.027344zm0 0" fill="#e0ebfc"/><path d="m244 270.027344c-62.511719 0-121.878906-9.402344-167.164062-26.472656-45.25-17.058594-72.257813-40.285157-76.300782-65.550782-.339844-.589844-.535156-1.273437-.535156-2.003906v-72c0-2.207031 1.792969-4 4-4h.292969c2.019531 0 3.722656 1.507812 3.96875 3.511719 5.878906 47.703125 111.628906 86.515625 235.738281 86.515625s229.859375-38.8125 235.734375-86.515625c.25-2.003907 1.953125-3.507813 3.972656-3.507813h.292969c2.207031 0 4 1.789063 4 4v72c0 .726563-.195312 1.414063-.539062 2.003906-4.039063 25.261719-31.046876 48.492188-76.296876 65.550782-45.285156 17.066406-104.652343 26.46875-167.164062 26.46875zm-236-95.53125c.128906.316406.21875.660156.261719 1.015625 5.878906 47.703125 111.628906 86.515625 235.738281 86.515625s229.859375-38.8125 235.734375-86.515625c.046875-.359375.136719-.699219.265625-1.015625v-49.679688c-11.496094 17.871094-35.09375 34.019532-68.835938 46.738282-45.285156 17.070312-104.652343 26.472656-167.164062 26.472656s-121.878906-9.402344-167.164062-26.472656c-33.742188-12.71875-57.339844-28.867188-68.835938-46.738282zm0 0" fill="#3762cc"/><path d="m21.964844 138.671875c-1 0-1.996094-.371094-2.769532-1.113281-12.738281-12.21875-19.195312-25.300782-19.195312-38.882813 0-54.160156 104.773438-97.5 238.53125-98.675781h10.90625c133.785156 1.175781 238.5625 44.515625 238.5625 98.675781 0 13.585938-6.457031 26.667969-19.195312 38.882813-1.546876 1.484375-3.988282 1.484375-5.539063 0-35.589844-34.136719-119.539063-56.730469-213.867187-57.558594h-10.835938c-94.289062.828125-178.238281 23.421875-213.832031 57.558594-.773438.742187-1.769531 1.113281-2.765625 1.113281zm227.472656-66.671875c93.863281.824219 178.039062 23.144531 216.476562 57.125 9.351563-9.839844 14.085938-20.070312 14.085938-30.449219 0-48.886719-103.449219-89.5625-230.601562-90.679687h-10.835938c-127.117188 1.121094-230.5625 41.796875-230.5625 90.679687 0 10.378907 4.734375 20.609375 14.085938 30.453125 38.441406-33.984375 122.613281-56.304687 216.445312-57.128906zm0 0" fill="#3762cc"/><path d="m244 270.027344c-62.511719 0-121.878906-9.402344-167.164062-26.472656-45.25-17.058594-72.257813-40.285157-76.300782-65.550782-.339844-.589844-.535156-1.273437-.535156-2.003906v-66c0-2.207031 1.792969-4 4-4h1.53125c1.789062 0 3.359375 1.1875 3.847656 2.90625 6.171875 21.703125 32.984375 41.96875 75.492188 57.066406 43.679687 15.511719 100.191406 24.054688 159.128906 24.054688 43.957031 0 86.886719-4.757813 124.160156-13.761719 11.605469-2.804687 23.640625-.171875 33.035156 7.214844 9.410157 7.40625 14.804688 18.527343 14.804688 30.503906 0 17.121094-11.554688 32.457031-28.097656 37.296875-41.90625 12.265625-91.667969 18.746094-143.902344 18.746094zm-236-95.53125c.128906.316406.21875.660156.261719 1.015625 5.878906 47.703125 111.628906 86.515625 235.738281 86.515625 51.484375 0 100.46875-6.371094 141.65625-18.421875 13.15625-3.851563 22.34375-16.03125 22.34375-29.621094 0-9.511719-4.285156-18.339844-11.757812-24.21875-7.445313-5.863281-17-7.949219-26.203126-5.726563-37.878906 9.152344-81.460937 13.988282-126.042968 13.988282-112.371094 0-208.433594-30.667969-236-73.285156v49.753906zm0 0" fill="#3762cc"/><path d="m282 178h-88c-8.835938 0-16 7.164062-16 16v72c0 8.835938 7.164062 16 16 16h88c8.835938 0 16-7.164062 16-16v-72c0-8.835938-7.164062-16-16-16zm-8 72c0 4.417969-3.582031 8-8 8h-56c-4.417969 0-8-3.582031-8-8v-40c0-4.417969 3.582031-8 8-8h56c4.417969 0 8 3.582031 8 8zm0 0" fill="#f9a7a7"/><path d="m282 286h-88c-11.027344 0-20-8.972656-20-20v-72c0-11.027344 8.972656-20 20-20h88c11.027344 0 20 8.972656 20 20v72c0 11.027344-8.972656 20-20 20zm-88-104c-6.617188 0-12 5.382812-12 12v72c0 6.617188 5.382812 12 12 12h88c6.617188 0 12-5.382812 12-12v-72c0-6.617188-5.382812-12-12-12zm72 80h-56c-6.617188 0-12-5.382812-12-12v-40c0-6.617188 5.382812-12 12-12h56c6.617188 0 12 5.382812 12 12v40c0 6.617188-5.382812 12-12 12zm-56-56c-2.207031 0-4 1.792969-4 4v40c0 2.207031 1.792969 4 4 4h56c2.207031 0 4-1.792969 4-4v-40c0-2.207031-1.792969-4-4-4zm0 0" fill="#3762cc"/><path d="m240 338c-6.628906 0-12-5.371094-12-12v-68c0-6.628906 5.371094-12 12-12s12 5.371094 12 12v68c0 6.628906-5.371094 12-12 12zm0 0" fill="#b9befc"/><path d="m240 342c-8.820312 0-16-7.179688-16-16v-68c0-8.820312 7.179688-16 16-16s16 7.179688 16 16v68c0 8.820312-7.179688 16-16 16zm0-92c-4.410156 0-8 3.589844-8 8v68c0 4.410156 3.589844 8 8 8s8-3.589844 8-8v-68c0-4.410156-3.589844-8-8-8zm0 0" fill="#3762cc"/></svg>