<svg height="488pt" viewBox="-85 0 488 488.37064" width="488pt" xmlns="http://www.w3.org/2000/svg"><path d="m103.839844 348.035156v34.160156c0 2.707032.910156 5.328126 2.589844 7.449219l45.015624 56.882813c3.183594 4.023437 9.273438 4.054687 12.496094.0625l45.984375-56.921875c1.726563-2.132813 2.667969-4.796875 2.667969-7.542969v-33.328125c-16.097656 8.242187-34.332031 12.894531-53.660156 12.894531-19.910156.003906-38.648438-4.949218-55.09375-13.65625zm0 0" fill="#f9cfcf"/><path d="m189.457031 416.371094c-8.820312 6.28125-19.585937 10-31.242187 10-11.652344 0-22.417969-3.722656-31.238282-10h-81.0625c-11.085937 14.144531-17.699218 31.957031-17.699218 51.324218v16.675782h264v-16.675782c0-19.367187-6.628906-37.179687-17.714844-51.324218zm0 0" fill="#e0ebfc"/><path d="m267.667969 270.476562h-8.3125c-18.132813 0-32.832031-14.699218-32.832031-32.832031v-90.972656c0-18.132813 14.699218-32.832031 32.832031-32.832031h8.3125c18.132812 0 32.828125 14.699218 32.828125 32.832031v90.972656c0 18.132813-14.695313 32.832031-32.828125 32.832031zm0 0" fill="#4671c6"/><path d="m56.496094 269.527344h-8.3125c-18.132813 0-32.832032-14.699219-32.832032-32.832032v-90.972656c0-18.132812 14.699219-32.828125 32.832032-32.828125h8.3125c18.132812 0 32.828125 14.695313 32.828125 32.828125v90.972656c0 18.132813-14.695313 32.832032-32.828125 32.832032zm0 0" fill="#4671c6"/><path d="m268.382812 274.476562h-8.3125c-20.308593 0-36.828124-16.523437-36.828124-36.832031v-90.972656c0-20.308594 16.519531-36.832031 36.828124-36.832031h8.3125c20.308594 0 36.832032 16.519531 36.832032 36.832031v90.972656c0 20.308594-16.523438 36.832031-36.832032 36.832031zm-8.3125-156.636718c-15.894531 0-28.828124 12.933594-28.828124 28.832031v90.972656c0 15.894531 12.933593 28.832031 28.828124 28.832031h8.3125c15.898438 0 28.832032-12.9375 28.832032-28.832031v-90.972656c0-15.898437-12.933594-28.832031-28.832032-28.832031zm0 0" fill="#3762cc"/><path d="m57.210938 273.527344h-8.3125c-20.308594 0-36.832032-16.523438-36.832032-36.832032v-90.972656c0-20.308594 16.523438-36.828125 36.832032-36.828125h8.3125c20.308593 0 36.832031 16.519531 36.832031 36.828125v90.972656c0 20.308594-16.523438 36.832032-36.832031 36.832032zm-8.308594-156.632813c-15.898438 0-28.832032 12.933594-28.832032 28.828125v90.972656c0 15.898438 12.933594 28.832032 28.832032 28.832032h8.3125c15.894531 0 28.828125-12.933594 28.828125-28.832032v-90.972656c0-15.894531-12.933594-28.828125-28.828125-28.828125zm0 0" fill="#3762cc"/><path d="m276.960938 198.808594c-.25 0-.496094.03125-.746094.035156v-11.148438c0-65.171874-52.828125-118-118-118-65.167969 0-118 52.828126-118 118v11.148438c-.25-.003906-.492188-.035156-.746094-.035156-19.882812 0-36 16.117187-36 36 0 19.878906 16.117188 36 36 36 1.304688 0 2.59375-.078125 3.863281-.214844 12.175781 52.199219 58.972657 91.101562 114.882813 91.101562 55.914062 0 102.707031-38.902343 114.882812-91.101562 1.273438.136719 2.558594.214844 3.863282.214844 19.882812 0 36-16.121094 36-36 0-19.882813-16.117188-36-36-36zm0 0" fill="#f9cfcf"/><g fill="#3762cc"><path d="m95.921875 239.535156c-6.628906 0-12-5.371094-12-12v-20c0-6.628906 5.371094-12 12-12s12 5.371094 12 12v20c0 6.628906-5.371094 12-12 12zm0 0"/><path d="m220.507812 239.535156c-6.628906 0-12-5.371094-12-12v-20c0-6.628906 5.371094-12 12-12 6.628907 0 12 5.371094 12 12v20c0 6.628906-5.371093 12-12 12zm0 0"/><path d="m159.511719 304.222656c-16.890625 0-30.636719-12.414062-30.636719-27.679687 0-2.207031 1.789062-4 4-4 2.207031 0 4 1.792969 4 4 0 10.851562 10.15625 19.679687 22.636719 19.679687 12.484375 0 22.640625-8.828125 22.640625-19.679687 0-2.207031 1.792968-4 4-4 2.207031 0 4 1.792969 4 4 0 15.261719-13.742188 27.679687-30.640625 27.679687zm0 0"/><path d="m158.929688 365.695312c-55.859376 0-103.886719-37.207031-117.960938-90.898437-22.398438.398437-40.785156-17.675781-40.785156-39.988281 0-20.960938 16.210937-38.210938 36.746094-39.871094v-7.242188c0-67.273437 54.730468-122 122-122 67.273437 0 122 54.726563 122 122v7.242188c20.542968 1.660156 36.746093 18.910156 36.746093 39.871094 0 22.3125-18.386719 40.441406-40.78125 39.988281-14.074219 53.691406-62.101562 90.898437-117.964843 90.898437zm-114.878907-99.101562c1.839844 0 3.464844 1.265625 3.890625 3.089844 12.089844 51.820312 57.730469 88.011718 110.988282 88.011718 53.261718 0 98.902343-36.191406 110.992187-88.011718.457031-1.964844 2.320313-3.28125 4.316406-3.066406 1.207031.128906 2.332031.191406 3.4375.191406 17.644531 0 32-14.359375 32-32s-14.34375-31.992188-31.976562-32c-.320313.019531-.503907.03125-.691407.035156-1.152343.054688-2.109374-.390625-2.875-1.144531-.765624-.75-1.203124-1.78125-1.203124-2.855469v-11.148438c0-62.859374-51.136719-114-114-114-62.859376 0-114 51.140626-114 114v11.148438c0 1.074219-.429688 2.105469-1.199219 2.855469-.765625.753906-1.769531 1.203125-2.878907 1.144531-.183593 0-.367187-.011719-.550781-.027344-.003906 0-.011719 0-.015625 0-17.753906 0-32.101562 14.351563-32.101562 31.992188 0 17.644531 14.359375 32 32 32 1.109375 0 2.234375-.0625 3.441406-.191406.144531-.015626.285156-.023438.425781-.023438zm0 0"/><path d="m96.640625 239.535156c-6.628906 0-12-5.371094-12-12v-20c0-6.628906 5.371094-12 12-12 6.625 0 12 5.371094 12 12v20c0 6.628906-5.375 12-12 12zm0 0"/><path d="m221.226562 239.535156c-6.628906 0-12-5.371094-12-12v-20c0-6.628906 5.371094-12 12-12 6.625 0 12 5.371094 12 12v20c0 6.628906-5.375 12-12 12zm0 0"/><path d="m160.230469 304.222656c-16.894531 0-30.640625-12.414062-30.640625-27.679687 0-2.207031 1.792968-4 4-4 2.210937 0 4 1.792969 4 4 0 10.851562 10.15625 19.679687 22.640625 19.679687s22.640625-8.828125 22.640625-19.679687c0-2.207031 1.792968-4 4-4 2.207031 0 4 1.792969 4 4 0 15.261719-13.746094 27.679687-30.640625 27.679687zm0 0"/></g><path d="m258.632812 32.640625h-20.277343c-16.046875 0-29.945313 9.601563-36.875 23.652344-1.082031 2.199219-4.011719 2.246093-5.171875.09375-6.429688-11.917969-18.480469-20.152344-32.480469-20.878907-85.488281-2.460937-136.453125-23.324218-152.664063-31.121093-2.640624-1.273438-5.664062.734375-5.664062 3.742187v83.949219c0 30.882813 24.285156 55.921875 54.238281 55.921875h78.675781c23.121094 0 43.289063-12.878906 54.207032-32.042969 1.347656-2.367187 4.703125-1.738281 5.375.929688 4.132812 16.382812 18.277344 28.449219 35.101562 28.449219h60.804688c8.613281 0 15.597656-7.367188 15.597656-16.457032v-42.5625c0-29.644531-22.773438-53.675781-50.867188-53.675781zm0 0" fill="#4671c6"/><path d="m139.132812 152h-78.675781c-32.117187 0-58.242187-26.882812-58.242187-59.921875v-83.949219c0-2.835937 1.417968-5.417968 3.792968-6.914062 2.3125-1.449219 5.15625-1.613282 7.609376-.433594 17.539062 8.4375 67.363281 28.316406 151.042968 30.726562 14.5.753907 27.371094 8.640626 34.882813 21.21875 8.125-14.90625 23.097656-24.082031 39.53125-24.082031h20.273437c30.253906 0 54.871094 25.871094 54.871094 57.675781v42.558594c0 11.28125-8.792969 20.460938-19.597656 20.460938h-60.804688c-17.507812 0-32.957031-11.878906-38.332031-29.164063-12.230469 19.691407-33.59375 31.824219-56.351563 31.824219zm-128.984374-144.007812.066406 33.898437v50.1875c0 28.628906 22.539062 51.921875 50.242187 51.921875h78.675781c20.742188 0 40.179688-11.503906 50.730469-30.023438 1.398438-2.457031 4.101563-3.796874 6.839844-3.421874 2.855469.390624 5.167969 2.492187 5.886719 5.359374 3.78125 14.964844 16.621094 25.421876 31.226562 25.421876h60.800782c6.394531 0 11.597656-5.585938 11.597656-12.457032v-42.5625c0-27.390625-21.027344-49.675781-46.871094-49.675781h-20.269531c-14.015625 0-26.769531 8.207031-33.289063 21.421875-1.167968 2.363281-3.496094 3.859375-6.074218 3.90625-2.589844.015625-4.957032-1.367188-6.207032-3.683594-6.003906-11.125-16.90625-18.148437-29.167968-18.785156-85.121094-2.449219-136.1875-22.847656-154.1875-31.507812zm0 0" fill="#3762cc"/><path d="m297.5 138.371094c0 29.824218-24.175781 54-54 54s-54-24.175782-54-54c0-29.824219 24.175781-54 54-54s54 24.175781 54 54zm0 0" fill="#ffea92"/><path d="m281.5 138.371094c0 20.988281-17.015625 38-38 38-20.988281 0-38-17.011719-38-38 0-20.988282 17.011719-38 38-38 20.984375 0 38 17.011718 38 38zm0 0" fill="#6bdddd"/><path d="m303.074219 119.371094h-9.023438c2.222657 5.910156 3.449219 12.3125 3.449219 19 0 7.449218-1.507812 14.542968-4.238281 21h9.8125c3.546875 0 6.425781-2.875 6.425781-6.425782v-27.148437c0-3.550781-2.878906-6.425781-6.425781-6.425781zm0 0" fill="#e0ebfc"/><path d="m192.945312 119.371094h-181.019531c-3.546875 0-6.425781 2.875-6.425781 6.425781v27.148437c0 3.546876 2.875 6.425782 6.425781 6.425782h181.808594c-2.726563-6.457032-4.234375-13.550782-4.234375-21 0-6.691406 1.222656-13.089844 3.445312-19zm0 0" fill="#e0ebfc"/><path d="m244.214844 196.371094c-31.980469 0-58-26.019532-58-58 0-31.984375 26.019531-58 58-58 31.980468 0 58 26.015625 58 58 0 31.980468-26.015625 58-58 58zm0-108c-27.570313 0-50 22.429687-50 50 0 27.570312 22.429687 50 50 50 27.570312 0 50-22.429688 50-50 0-27.570313-22.429688-50-50-50zm0 0" fill="#3762cc"/><path d="m244.214844 180.371094c-23.15625 0-42-18.839844-42-42s18.84375-42 42-42c23.160156 0 42 18.839844 42 42s-18.839844 42-42 42zm0-76c-18.746094 0-34 15.25-34 34 0 18.746094 15.253906 34 34 34 18.75 0 34-15.253906 34-34 0-18.75-15.25-34-34-34zm0 0" fill="#3762cc"/><path d="m303.789062 163.371094h-9.808593c-1.34375 0-2.59375-.671875-3.335938-1.789063-.738281-1.121093-.875-2.535156-.351562-3.769531 2.605469-6.160156 3.921875-12.703125 3.921875-19.445312 0-6.039063-1.074219-11.957032-3.191406-17.589844-.460938-1.230469-.292969-2.605469.457031-3.6875.746093-1.078125 1.976562-1.722656 3.289062-1.722656h9.023438c5.746093 0 10.425781 4.675781 10.425781 10.425781v27.152343c-.003906 5.746094-4.679688 10.425782-10.429688 10.425782zm-4.105468-8h4.109375c1.335937 0 2.425781-1.089844 2.425781-2.425782v-27.148437c0-1.339844-1.089844-2.425781-2.425781-2.425781h-3.542969c1.304688 4.875 1.964844 9.902344 1.964844 15 0 5.820312-.847656 11.515625-2.53125 17zm0 0" fill="#3762cc"/><path d="m194.449219 163.371094h-181.808594c-5.75 0-10.425781-4.675782-10.425781-10.425782v-27.148437c0-5.75 4.675781-10.425781 10.425781-10.425781h181.023437c1.3125 0 2.542969.644531 3.289063 1.722656.75 1.082031.917969 2.457031.457031 3.6875-2.117187 5.625-3.191406 11.542969-3.191406 17.589844 0 6.746094 1.316406 13.289062 3.917969 19.445312.523437 1.234375.386719 2.648438-.351563 3.765625-.742187 1.117188-1.992187 1.789063-3.335937 1.789063zm-181.808594-40c-1.335937 0-2.425781 1.085937-2.425781 2.425781v27.148437c0 1.335938 1.089844 2.425782 2.425781 2.425782h176.105469c-1.679688-5.480469-2.53125-11.175782-2.53125-17 0-5.101563.660156-10.125 1.964844-15zm0 0" fill="#3762cc"/><path d="m163.941406 446.589844c-3.222656 3.992187-9.3125 3.957031-12.496094-.0625l-45.015624-56.882813c-1.144532-1.453125-1.90625-3.144531-2.289063-4.929687-42.550781 3.746094-75.925781 39.457031-75.925781 82.980468v16.671876h264v-16.671876c0-44.863281-35.457032-81.425781-79.875-83.238281zm0 0" fill="#a4c9ff"/><path d="m292.214844 488.371094h-264c-2.207032 0-4-1.792969-4-4v-16.675782c0-44.25 32.238281-80.773437 75.625-86.527343v-33.132813c0-1.40625.734375-2.703125 1.933594-3.425781 1.207031-.726563 2.695312-.765625 3.9375-.109375 16.300781 8.632812 34.707031 13.195312 53.222656 13.195312 18.253906 0 35.695312-4.1875 51.835937-12.453124 1.238281-.636719 2.71875-.578126 3.90625.148437 1.191407.726563 1.914063 2.019531 1.914063 3.410156v31.921875c44.96875 3.902344 79.628906 41.347656 79.628906 86.972656v16.675782c-.003906 2.207031-1.792969 4-4.003906 4zm-260-8h256v-12.675782c0-42.691406-33.398438-77.5-76.039063-79.242187-1.105469-.042969-2.140625-.542969-2.867187-1.382813-.722656-.835937-1.066406-1.9375-.949219-3.039062l.226563-2.117188v-26.757812c-15.625 6.996094-32.296876 10.539062-49.660157 10.539062-17.621093 0-35.152343-3.863281-51.09375-11.21875v27.71875c0 .476563.070313 1.007813.214844 1.683594.242187 1.121094-.011719 2.289063-.695313 3.210938-.679687.925781-1.722656 1.507812-2.867187 1.609375-41.203125 3.628906-72.273437 37.589843-72.273437 78.996093v12.675782zm0 0" fill="#3762cc"/><path d="m199.164062 442.90625c-4.746093 0-8.589843-3.847656-8.589843-8.589844v-3.71875c0-4.742187 3.84375-8.589844 8.589843-8.589844 4.742188 0 8.589844 3.847657 8.589844 8.589844v3.71875c-.003906 4.746094-3.847656 8.589844-8.589844 8.589844zm0 0" fill="#4671c6"/><path d="m253.984375 442.90625c4.742187 0 8.589844-3.847656 8.589844-8.589844v-3.71875c0-4.742187-3.847657-8.589844-8.589844-8.589844-4.746094 0-8.589844 3.847657-8.589844 8.589844v3.71875c0 4.746094 3.847657 8.589844 8.589844 8.589844zm0 0" fill="#4671c6"/><path d="m215.601562 427.945312c-4.746093 0-8.589843-3.84375-8.589843-8.589843v-3.714844c0-4.742187 3.84375-8.589844 8.589843-8.589844 4.742188 0 8.589844 3.847657 8.589844 8.589844v3.714844c0 4.746093-3.847656 8.589843-8.589844 8.589843zm0 0" fill="#4671c6"/><path d="m237.082031 427.945312c4.742188 0 8.589844-3.84375 8.589844-8.589843v-3.714844c0-4.742187-3.847656-8.589844-8.589844-8.589844-4.746093 0-8.589843 3.847657-8.589843 8.589844v3.714844c0 4.746093 3.84375 8.589843 8.589843 8.589843zm0 0" fill="#4671c6"/><path d="m243.449219 443.949219c-.761719-.179688-1.289063-.789063-1.289063-1.484375 0-7.613282-6.976562-13.785156-15.585937-13.785156-8.605469 0-15.585938 6.171874-15.585938 13.785156 0 .695312-.527343 1.304687-1.285156 1.484375-6.570313 1.554687-11.414063 6.851562-11.414063 13.152343v.335938c0 7.519531 6.890626 13.613281 15.394532 13.613281h25.78125c8.5 0 15.394531-6.097656 15.394531-13.613281v-.335938c0-6.300781-4.839844-11.597656-11.410156-13.152343zm0 0" fill="#4671c6"/></svg>